<svg width="12" height="12" viewBox="0 0 12 12" fill="none" xmlns="http://www.w3.org/2000/svg">
<path fill-rule="evenodd" clip-rule="evenodd" d="M6.35408 5.64694C6.54934 5.8422 6.54934 6.15878 6.35408 6.35404L1.58111 11.127C1.28822 11.4199 0.813344 11.4199 0.520451 11.127C0.227558 10.8341 0.227558 10.3592 0.520451 10.0664L4.58632 5.99908L0.520451 1.93463C0.227558 1.64173 0.227558 1.16686 0.520451 0.873967C0.813344 0.581074 1.28822 0.581074 1.58111 0.873967L6.35408 5.64694ZM11.3541 5.64694C11.5493 5.8422 11.5493 6.15878 11.3541 6.35404L6.58111 11.127C6.28822 11.4199 5.81334 11.4199 5.52045 11.127C5.22756 10.8341 5.22756 10.3592 5.52045 10.0664L9.58632 5.99908L5.52045 1.93463C5.22756 1.64173 5.22756 1.16686 5.52045 0.873967C5.81334 0.581074 6.28822 0.581074 6.58111 0.873967L11.3541 5.64694Z" fill="#D0D5DD"/>
</svg>
