<svg width="12" height="12" viewBox="0 0 12 12" fill="none" xmlns="http://www.w3.org/2000/svg">
<path fill-rule="evenodd" clip-rule="evenodd" d="M0.646935 5.64694C0.451673 5.8422 0.451673 6.15878 0.646935 6.35404L5.41991 11.127C5.7128 11.4199 6.18767 11.4199 6.48057 11.127C6.77346 10.8341 6.77346 10.3592 6.48057 10.0664L2.4147 5.99908L6.48057 1.93463C6.77346 1.64173 6.77346 1.16686 6.48057 0.873967C6.18767 0.581074 5.7128 0.581074 5.41991 0.873967L0.646935 5.64694ZM5.64693 5.64694C5.45167 5.8422 5.45167 6.15878 5.64693 6.35404L10.4199 11.127C10.7128 11.4199 11.1877 11.4199 11.4806 11.127C11.7735 10.8341 11.7735 10.3592 11.4806 10.0664L7.4147 5.99908L11.4806 1.93463C11.7735 1.64173 11.7735 1.16686 11.4806 0.873967C11.1877 0.581074 10.7128 0.581074 10.4199 0.873967L5.64693 5.64694Z" fill="#D0D5DD"/>
</svg>
