<svg width="12" height="12" viewBox="0 0 12 12" fill="none" xmlns="http://www.w3.org/2000/svg">
<path fill-rule="evenodd" clip-rule="evenodd" d="M0.646904 5.64694C0.451642 5.8422 0.451642 6.15878 0.646904 6.35404L5.41988 11.127C5.71277 11.4199 6.18764 11.4199 6.48054 11.127C6.77343 10.8341 6.77343 10.3592 6.48054 10.0664L2.41467 5.99908L6.48054 1.93463C6.77343 1.64173 6.77343 1.16686 6.48054 0.873967C6.18764 0.581074 5.71277 0.581074 5.41988 0.873967L0.646904 5.64694ZM5.6469 5.64694C5.45164 5.8422 5.45164 6.15878 5.6469 6.35404L10.4199 11.127C10.7128 11.4199 11.1876 11.4199 11.4805 11.127C11.7734 10.8341 11.7734 10.3592 11.4805 10.0664L7.41467 5.99908L11.4805 1.93463C11.7734 1.64173 11.7734 1.16686 11.4805 0.873967C11.1876 0.581074 10.7128 0.581074 10.4199 0.873967L5.6469 5.64694Z" fill="#8A92A0"/>
</svg>
