<svg width="12" height="12" viewBox="0 0 12 12" fill="none" xmlns="http://www.w3.org/2000/svg">
<path fill-rule="evenodd" clip-rule="evenodd" d="M6.35335 5.64694C6.54861 5.8422 6.54861 6.15878 6.35335 6.35404L1.58038 11.127C1.28749 11.4199 0.812612 11.4199 0.519719 11.127C0.226826 10.8341 0.226826 10.3592 0.519719 10.0664L4.58558 5.99908L0.519719 1.93463C0.226826 1.64173 0.226826 1.16686 0.519719 0.873967C0.812612 0.581074 1.28749 0.581074 1.58038 0.873967L6.35335 5.64694ZM11.3533 5.64694C11.5486 5.8422 11.5486 6.15878 11.3533 6.35404L6.58038 11.127C6.28749 11.4199 5.81261 11.4199 5.51972 11.127C5.22683 10.8341 5.22683 10.3592 5.51972 10.0664L9.58558 5.99908L5.51972 1.93463C5.22683 1.64173 5.22683 1.16686 5.51972 0.873967C5.81261 0.581074 6.28749 0.581074 6.58038 0.873967L11.3533 5.64694Z" fill="#8A92A0"/>
</svg>
